<?xml version="1.0" encoding="utf-8" ?><svg xmlns="http://www.w3.org/2000/svg" xmlns:xlink="http://www.w3.org/1999/xlink" width="1345" height="1046" viewBox="0 0 1345 1046"><path fill="#18A685" transform="matrix(1.02359 0 0 1.02348 0.000488281 6.10352e-05)" d="M77.9888 511.135C75.5636 495.578 80.2442 458.968 82.663 443.308C96.1298 352.302 135.989 267.243 197.307 198.657C285.969 99.7622 400.562 47.1954 532.787 39.7141C661.459 32.4338 784.649 73.9352 880.837 160.669C975.335 245.478 1031.9 364.62 1037.88 491.448C1016.14 476.405 998.631 468.798 971.481 472.825C982.624 502.235 990.283 531.365 1015.09 552.497C1022.77 559.046 1029.62 562.54 1036.68 568.12L1034.93 583.82C1052.11 600.806 1052.1 620.032 1063.99 637.689C1071.43 648.75 1074.59 686.747 1077.34 689.643C1078.53 691.91 1078 699.634 1077.9 702.659L1087.31 702.622L1093.6 702.691L1098.17 702.592L1100.21 690.245C1107.2 690.362 1129.64 691.026 1136.34 692.158C1141.7 692.848 1145.51 693.197 1150.43 695.509C1150.64 719.843 1151.9 744.731 1143.39 767.886C1142.07 771.477 1140.75 775.054 1139.48 778.665C1153.54 780.314 1206.56 783.274 1208.38 801.673C1208.68 808.557 1210.48 822.379 1205.91 826.737C1195.91 836.282 1176.63 837.189 1164.05 840.773C1156.65 841.421 1149.48 842.599 1142.43 843.241C1126 844.138 1102.36 846.58 1086.7 846.164L1065.27 846.133C1047.72 846.406 1026.22 844.856 1008.84 843.327C1001.75 842.085 994.27 841.473 987.077 840.762C968.443 835.918 956.016 837.961 938.045 825.421C937.168 861.464 931.585 903.554 927.557 939.604C925.422 958.704 922.171 986.35 917.992 1004.76C920.275 1008.91 926.07 1018.38 927.647 1022L614.063 1022L587 1022L397.989 1022L392.204 1022L87.3891 1022C79.5476 1005.35 67.8386 969.348 62.0403 951.269C45.0946 899.17 31.4772 846.046 21.2707 792.219C13.4387 752.134 5.88305 703.166 6.14401 662.381C6.12967 643.174 8.30194 624.028 12.6189 605.312C22.0709 565.912 43.0587 532.512 77.9888 511.135ZM282.091 465.884C285.604 460.019 289.864 454.637 294.765 449.871C318.612 426.931 350.997 426.587 380.663 416.804C385.093 415.343 391.079 412.914 395.657 412.982C401.358 412.055 406.61 409.733 410.751 405.664C428.091 398.585 433.741 372.078 436.479 355.817C436.203 349.35 436.905 337.359 436.927 330.109C440.694 337.542 444.312 346.939 448.473 353.759C462.888 377.389 481.887 391.812 506.241 403.584C505.288 407.279 503.396 413.428 504.297 417.003C507.652 418.659 512.921 421.439 516.406 422.105C525.059 421.528 527.644 424.392 535.117 425.44C538.84 428.701 549.461 430.946 554.539 432.078C599.67 442.143 615.858 461.459 631.778 502.255C632.362 507.873 623.092 531.759 620.917 539.284L629.045 537.417C634.739 536.556 640.53 535.995 646.259 535.376C652.032 534.62 659.532 534.082 658.871 542.085C656.93 545.515 656.092 546.416 652.853 548.951C649.153 553.776 645.468 553.985 640.452 556.825C646.592 556.467 649.386 557.118 653.67 553.013C656.309 550.66 660.293 551.072 663.771 551.102C670.532 551.06 677.288 551.489 683.989 552.384C685.922 552.643 699.853 555.142 700.252 554.951L701.105 551.528C691.355 543.434 679.591 542.073 675.863 529.571C675.813 528.321 676.01 525.921 676.077 524.597C679.475 519.701 681.969 520.128 687.148 521.426C695.832 523.354 703.294 525.216 711.342 529.387C715.864 532.84 722.024 539.801 721.334 545.44C720.459 552.595 724.451 564.7 724.248 570.331C723.958 578.345 718.286 591.451 715.626 599.147C709.416 611.984 702.916 616.808 703.106 632.014C730.205 649.153 737.027 674.477 730.435 704.98C739.644 705.476 748.912 706.794 758.057 707.762C801.649 712.377 845.479 715.273 888.148 725.721C919.38 733.368 933.88 751.258 937.005 783.183C937.246 785.646 938.046 792.349 938.81 794.557C937.384 798.339 937.786 811.895 938.108 816.378L938.045 825.421C956.016 837.961 968.443 835.918 987.077 840.762C994.27 841.473 1001.75 842.085 1008.84 843.327C1026.22 844.856 1047.72 846.406 1065.27 846.133L1086.7 846.164C1102.36 846.58 1126 844.138 1142.43 843.241C1149.48 842.599 1156.65 841.421 1164.05 840.773C1176.63 837.189 1195.91 836.282 1205.91 826.737C1210.48 822.379 1208.68 808.557 1208.38 801.673C1206.56 783.274 1153.54 780.314 1139.48 778.665C1140.75 775.054 1142.07 771.477 1143.39 767.886C1151.9 744.731 1150.64 719.843 1150.43 695.509C1145.51 693.197 1141.7 692.848 1136.34 692.158C1129.64 691.026 1107.2 690.362 1100.21 690.245L1098.17 702.592L1093.6 702.691L1087.31 702.622L1077.9 702.659C1078 699.634 1078.53 691.91 1077.34 689.643C1074.59 686.747 1071.43 648.75 1063.99 637.689C1052.1 620.032 1052.11 600.806 1034.93 583.82L1036.68 568.12C1029.62 562.54 1022.77 559.046 1015.09 552.497C990.283 531.365 982.624 502.235 971.481 472.825C998.631 468.798 1016.14 476.405 1037.88 491.448C1031.9 364.62 975.335 245.478 880.837 160.669C784.649 73.9352 661.459 32.4338 532.787 39.7141C400.562 47.1954 285.969 99.7622 197.307 198.657C135.989 267.243 96.1298 352.302 82.663 443.308C80.2442 458.968 75.5636 495.578 77.9888 511.135C125.638 483.08 186.638 472.826 241.176 467.787C252.727 466.719 270.891 465.417 282.091 465.884Z"/><path fill="#DBEEE5" transform="matrix(1.02359 0 0 1.02348 0.000488281 6.10352e-05)" d="M77.9888 511.135C75.5636 495.578 80.2442 458.968 82.663 443.308C96.1298 352.302 135.989 267.243 197.307 198.657C285.969 99.7622 400.562 47.1954 532.787 39.7141C661.459 32.4338 784.649 73.9352 880.837 160.669C975.335 245.478 1031.9 364.62 1037.88 491.448C1016.14 476.405 998.631 468.798 971.481 472.825C982.624 502.235 990.283 531.365 1015.09 552.497C1022.77 559.046 1029.62 562.54 1036.68 568.12L1034.93 583.82C1052.11 600.806 1052.1 620.032 1063.99 637.689C1071.43 648.75 1074.59 686.747 1077.34 689.643C1078.53 691.91 1078 699.634 1077.9 702.659L1087.31 702.622L1093.6 702.691L1098.17 702.592L1100.21 690.245C1107.2 690.362 1129.64 691.026 1136.34 692.158C1141.7 692.848 1145.51 693.197 1150.43 695.509C1150.64 719.843 1151.9 744.731 1143.39 767.886C1142.07 771.477 1140.75 775.054 1139.48 778.665C1153.54 780.314 1206.56 783.274 1208.38 801.673C1208.68 808.557 1210.48 822.379 1205.91 826.737C1195.91 836.282 1176.63 837.189 1164.05 840.773C1156.65 841.421 1149.48 842.599 1142.43 843.241C1126 844.138 1102.36 846.58 1086.7 846.164L1065.27 846.133C1047.72 846.406 1026.22 844.856 1008.84 843.327C1001.75 842.085 994.27 841.473 987.077 840.762C968.443 835.918 956.016 837.961 938.045 825.421L938.108 816.378C937.786 811.895 937.384 798.339 938.81 794.557C938.046 792.349 937.246 785.646 937.005 783.183C933.88 751.258 919.38 733.368 888.148 725.721C845.479 715.273 801.649 712.377 758.057 707.762C748.912 706.794 739.644 705.476 730.435 704.98C737.027 674.477 730.205 649.153 703.106 632.014C702.916 616.808 709.416 611.984 715.626 599.147C718.286 591.451 723.958 578.345 724.248 570.331C724.451 564.7 720.459 552.595 721.334 545.44C722.024 539.801 715.864 532.84 711.342 529.387C703.294 525.216 695.832 523.354 687.148 521.426C681.969 520.128 679.475 519.701 676.077 524.597C676.01 525.921 675.813 528.321 675.863 529.571C679.591 542.073 691.355 543.434 701.105 551.528L700.252 554.951C699.853 555.142 685.922 552.643 683.989 552.384C677.288 551.489 670.532 551.06 663.771 551.102C660.293 551.072 656.309 550.66 653.67 553.013C649.386 557.118 646.592 556.467 640.452 556.825C645.468 553.985 649.153 553.776 652.853 548.951C656.092 546.416 656.93 545.515 658.871 542.085C659.532 534.082 652.032 534.62 646.259 535.376C640.53 535.995 634.739 536.556 629.045 537.417L620.917 539.284C623.092 531.759 632.362 507.873 631.778 502.255C615.858 461.459 599.67 442.143 554.539 432.078C549.461 430.946 538.84 428.701 535.117 425.44C527.644 424.392 525.059 421.528 516.406 422.105C512.921 421.439 507.652 418.659 504.297 417.003C503.396 413.428 505.288 407.279 506.241 403.584C481.887 391.812 462.888 377.389 448.473 353.759C444.312 346.939 440.694 337.542 436.927 330.109C436.905 337.359 436.203 349.35 436.479 355.817C433.741 372.078 428.091 398.585 410.751 405.664C406.61 409.733 401.358 412.055 395.657 412.982C391.079 412.914 385.093 415.343 380.663 416.804C350.997 426.587 318.612 426.931 294.765 449.871C289.864 454.637 285.604 460.019 282.091 465.884C270.891 465.417 252.727 466.719 241.176 467.787C186.638 472.826 125.638 483.08 77.9888 511.135ZM960.94 785.665C978.463 781.034 1004.51 779.353 1022.83 777.979C1013.37 753.149 1009.23 722.618 1012.89 696.322C1020 692.373 1025.09 692.28 1033.17 692.117C1036.1 690.842 1058.25 690.391 1063.19 690.268C1060.91 678.699 1058.75 674.167 1051.74 665.086C1040.98 671.38 1035.28 674.85 1022.64 676.546C1020.73 676.804 1012.64 677.688 1011.62 677.927C1002.86 705.441 991.397 732.019 977.394 757.27C972.115 766.923 966.241 776.139 960.94 785.665ZM1028.29 637.886C1045.85 639.128 1050.5 649.236 1057.2 663.677C1063.69 673.387 1064.87 678.5 1067.91 689.635L1070.88 689.374C1071.06 672.323 1062.37 639.544 1050.95 626.565C1043.19 623.797 1035.2 624.842 1027.34 626.814C1026.77 629.842 1025.48 634.562 1027.24 637.182L1028.29 637.886Z"/><path fill="#18A685" transform="matrix(1.02359 0 0 1.02348 0.000488281 6.10352e-05)" d="M1051.74 665.086L1057.2 663.677C1063.69 673.387 1064.87 678.5 1067.91 689.635L1070.88 689.374C1071.08 693.754 1071.24 698.136 1071.36 702.519L1070.33 702.715L1064.55 702.491C1064.44 698.113 1063.84 694.569 1063.19 690.268C1060.91 678.699 1058.75 674.167 1051.74 665.086Z"/><path fill="#82CEB0" transform="matrix(1.02359 0 0 1.02348 0.000488281 6.10352e-05)" d="M1067.91 689.635L1070.88 689.374C1071.08 693.754 1071.24 698.136 1071.36 702.519L1070.33 702.715C1069.42 698.826 1068.64 693.652 1067.91 689.635Z"/><path fill="#1C2B2E" transform="matrix(1.02359 0 0 1.02348 0.000488281 6.10352e-05)" d="M357.447 386.554C343.783 381.096 333.931 375.643 328.116 361.123C318.944 338.219 311.334 326.042 321.221 301.101C331.449 275.305 358.896 264.341 375.136 243.359C384.185 231.668 388.829 217.866 393.882 204.229C404.957 174.344 422.975 152.072 453.218 139.633C481.874 127.781 514.076 127.855 542.677 139.84C556.881 145.807 565.803 155.948 581.873 160.32C592.489 163.208 606.662 181.643 610.134 191.575C613.601 204.922 621.309 213.559 629.074 223.986C638.204 236.248 641.143 264.343 633.793 277.905C624.225 295.561 614.592 305.606 623.922 327.406C633.484 349.747 645.148 362.53 635.316 388.249C636.371 371.765 636.62 364.05 627.934 349.356C633.603 372.297 637.112 401.198 609.583 411.47C614.427 401.309 615.817 397.07 615.437 385.489C605.882 410.981 596.481 423.831 567.14 423.417C571.684 418.725 573.653 416.278 576.925 410.608C564.535 421.686 556.061 426.652 538.63 425.765C537.456 425.703 536.284 425.594 535.117 425.44C527.644 424.392 525.059 421.528 516.406 422.105C512.921 421.439 507.652 418.659 504.297 417.003C503.396 413.428 505.288 407.279 506.241 403.584C481.887 391.812 462.888 377.389 448.473 353.759C444.312 346.939 440.694 337.542 436.927 330.109C436.905 337.359 436.203 349.35 436.479 355.817C433.741 372.078 428.091 398.585 410.751 405.664C376.021 402.494 364.727 394.948 351.091 363.358C352.5 373.468 353.074 377.001 357.447 386.554Z"/><path fill="#D9986D" transform="matrix(1.02359 0 0 1.02348 0.000488281 6.10352e-05)" d="M462.683 264.377C503.579 263.744 556.04 255.557 571.912 211.388C599.862 238.112 607.824 248 599.776 288.425C596.758 282.475 595.074 280.017 588.478 277.172C583.242 274.914 572.055 277.374 569.382 282.672C570.035 283.977 570.609 284.634 572.358 284.9C585.368 286.877 587.228 283.804 599.066 291.028C596.039 300.41 593.418 309.919 591.212 319.528C589.624 326.587 588.12 336.05 585.821 342.716C575.96 371.306 540.319 415.663 506.241 403.584C481.887 391.812 462.888 377.389 448.473 353.759C444.312 346.939 440.694 337.542 436.927 330.109C436.477 324.912 437.198 320.919 431.616 319.407C429.797 322.595 425.97 324.043 422.496 322.855C419.022 321.667 416.882 318.179 417.397 314.544C408.157 304.503 404.734 295.603 404.45 281.809C404.164 267.914 421.585 251.711 432.955 264.788C437.346 269.838 439.675 281.562 446.584 283.678C452.594 284.806 460.954 268.67 462.683 264.377Z"/><path fill="#9CD5BF" transform="matrix(1.02359 0 0 1.02348 0.000488281 6.10352e-05)" d="M417.397 314.544C417.829 311.495 420.048 309.002 423.027 308.219C426.006 307.436 429.163 308.516 431.039 310.959C432.915 313.402 433.142 316.731 431.616 319.407C429.797 322.595 425.97 324.043 422.496 322.855C419.022 321.667 416.882 318.179 417.397 314.544Z"/><path fill="#1C2B2E" transform="matrix(1.02359 0 0 1.02348 0.000488281 6.10352e-05)" d="M508.363 264.48C514.42 264.156 536.903 266.656 534.521 276.12C530.537 279.137 522.564 275.629 518.168 274.147C507.306 272.323 496.8 273.27 486.036 274.963C493.925 268.096 498.255 266.288 508.363 264.48Z"/><path fill="#1C2B2E" transform="matrix(1.02359 0 0 1.02348 0.000488281 6.10352e-05)" d="M502.715 293.975C508.791 293.53 523.937 294.167 522.752 302.859C521.24 303.099 520.73 302.238 519.006 301.08C516.798 301.534 517.979 307.685 516.383 310.331C515.185 312.318 514.232 313.303 512.714 314.999C509.247 316.672 503.834 317.088 502.875 312.287C501.699 306.403 503.849 302.43 506.784 297.669C502.756 297.796 499.682 298.182 495.836 296.856L495.698 296.051C497.944 294.635 500.079 294.469 502.715 293.975Z"/><path fill="#1C2B2E" transform="matrix(1.02359 0 0 1.02348 0.000488281 6.10352e-05)" d="M572.581 304.203C576.136 303.972 587.73 304.859 586.699 310.158C584.248 310.39 583.657 309.609 581.186 308.424C580.944 316.286 581.134 318.127 576.039 324.09C563.805 327.476 567.196 314.631 571.026 308.117L562.43 310.41C566.519 307.094 567.797 306.4 572.581 304.203Z"/><path fill="#BF7952" transform="matrix(1.02359 0 0 1.02348 0.000488281 6.10352e-05)" d="M418.762 270.529C427.466 271.837 429.334 279.015 431.522 286.201C430.034 289.462 429.45 291.431 428.426 294.883C429.597 299.191 430.439 301.222 432.242 305.347C429.049 303.278 426.124 301.064 423.07 298.796C415.106 291.564 422.072 286.701 427.273 281.345C420.501 269.355 419.25 276.744 413.334 276.699L413.501 275.313C415.05 272.727 416.293 272.142 418.762 270.529Z"/><path fill="#BF7952" transform="matrix(1.02359 0 0 1.02348 0.000488281 6.10352e-05)" d="M557.02 297.568C557.661 299.656 553.017 310.033 553.082 313.163C553.432 330.018 567.635 363.249 533.698 347.027L532.944 346.441L533.091 345.654C536.543 344.803 542.16 347.35 545.382 348.688C559.135 342.604 551.849 333.157 551.029 321.765C550.413 313.222 551.509 304.448 557.02 297.568Z"/><path fill="#BF7952" transform="matrix(1.02359 0 0 1.02348 0.000488281 6.10352e-05)" d="M508.673 357.858C514.756 359.509 520.698 364.832 529.239 366.691C535.951 368.152 542.256 365.315 544.933 366.669L544.557 368.131C544.438 368.185 544.32 368.24 544.201 368.294L543.603 368.554L542.865 368.887C531.997 373.665 513.768 369.47 508.673 357.858Z"/><path fill="#BF7952" transform="matrix(1.02359 0 0 1.02348 0.000488281 6.10352e-05)" d="M519.605 377.299C522.609 377.319 529.25 377.202 531.449 379.035C526.428 380.637 523.946 379.636 519.605 377.299Z"/><path fill="#E4E3E5" transform="matrix(1.02359 0 0 1.02348 0.000488281 6.10352e-05)" d="M343.123 284.866C342.915 287.844 332.767 299.589 330.523 304.35C326.177 313.57 325.269 321.193 322.544 330.603C317.968 314.125 332.159 295.526 343.123 284.866Z"/><path fill="#D9986D" transform="matrix(1.02359 0 0 1.02348 0.000488281 6.10352e-05)" d="M495.431 251.475C507.086 246.955 516.47 243.136 527.142 236.444C533.305 232.579 539.254 227.865 545.226 224.109C534.796 235.436 524.873 242.325 510.295 247.686C507.315 248.782 499.39 251.317 497.001 252.461L495.431 251.475Z"/><path fill="#7F6852" transform="matrix(1.02359 0 0 1.02348 0.000488281 6.10352e-05)" d="M497.001 252.461C494.106 253.166 491.1 254.177 488.215 253.856C489.841 252.567 493.266 252.001 495.431 251.475L497.001 252.461Z"/><path fill="#9CD5BF" transform="matrix(1.02359 0 0 1.02348 0.000488281 6.10352e-05)" d="M1033.17 692.117C1036.1 690.842 1058.25 690.391 1063.19 690.268C1063.84 694.569 1064.44 698.113 1064.55 702.491L1070.33 702.715L1071.36 702.519L1077.9 702.659L1087.31 702.622L1093.6 702.691L1098.17 702.592L1100.21 690.245C1107.2 690.362 1129.64 691.026 1136.34 692.158C1141.7 692.848 1145.51 693.197 1150.43 695.509C1150.64 719.843 1151.9 744.731 1143.39 767.886C1142.07 771.477 1140.75 775.054 1139.48 778.665C1153.54 780.314 1206.56 783.274 1208.38 801.673C1208.68 808.557 1210.48 822.379 1205.91 826.737C1195.91 836.282 1176.63 837.189 1164.05 840.773C1156.65 841.421 1149.48 842.599 1142.43 843.241C1126 844.138 1102.36 846.58 1086.7 846.164L1065.27 846.133C1047.72 846.406 1026.22 844.856 1008.84 843.327C1001.75 842.085 994.27 841.473 987.077 840.762C968.443 835.918 956.016 837.961 938.045 825.421L938.108 816.378C937.786 811.895 937.384 798.339 938.81 794.557C946.086 789.373 952.495 787.818 960.94 785.665C978.463 781.034 1004.51 779.353 1022.83 777.979C1013.37 753.149 1009.23 722.618 1012.89 696.322C1020 692.373 1025.09 692.28 1033.17 692.117Z"/><path fill="#DBEEE5" transform="matrix(1.02359 0 0 1.02348 0.000488281 6.10352e-05)" d="M1033.17 692.117C1036.1 690.842 1058.25 690.391 1063.19 690.268C1063.84 694.569 1064.44 698.113 1064.55 702.491L1070.33 702.715L1071.36 702.519L1077.9 702.659L1087.31 702.622L1093.6 702.691L1098.17 702.592L1100.21 690.245C1107.2 690.362 1129.64 691.026 1136.34 692.158C1141.7 692.848 1145.51 693.197 1150.43 695.509C1150.64 719.843 1151.9 744.731 1143.39 767.886C1142.07 771.477 1140.75 775.054 1139.48 778.665C1135.8 783.518 1132.1 788.534 1127.4 792.465C1109.25 804.204 1092.24 802.88 1071.44 802.641C1058.54 802.492 1047.02 798.86 1035.76 792.78C1031.29 788.726 1026.51 782.785 1022.83 777.979C1013.37 753.149 1009.23 722.618 1012.89 696.322C1020 692.373 1025.09 692.28 1033.17 692.117Z"/><path fill="#82CEB0" transform="matrix(1.02359 0 0 1.02348 0.000488281 6.10352e-05)" d="M1100.21 690.245C1107.2 690.362 1129.64 691.026 1136.34 692.158L1131.95 692.351L1131.77 692.664C1134.85 693.44 1139.57 694.383 1142.13 695.929L1142.37 696.992C1136.37 702.008 1106.47 702.565 1098.17 702.592L1100.21 690.245Z"/><path fill="#82CEB0" transform="matrix(1.02359 0 0 1.02348 0.000488281 6.10352e-05)" d="M1033.17 692.117C1036.1 690.842 1058.25 690.391 1063.19 690.268C1063.84 694.569 1064.44 698.113 1064.55 702.491C1056.28 702.743 1027.64 701.751 1021.49 697.077L1021.85 696.089C1024.51 694.277 1029.86 693.081 1033.17 692.117Z"/><path fill="#63BA9E" transform="matrix(1.02359 0 0 1.02348 0.000488281 6.10352e-05)" d="M1208.38 801.673C1208.68 808.557 1210.48 822.379 1205.91 826.737C1195.91 836.282 1176.63 837.189 1164.05 840.773C1156.65 841.421 1149.48 842.599 1142.43 843.241C1126 844.138 1102.36 846.58 1086.7 846.164L1065.27 846.133C1047.72 846.406 1026.22 844.856 1008.84 843.327C1001.75 842.085 994.27 841.473 987.077 840.762C968.443 835.918 956.016 837.961 938.045 825.421L938.108 816.378C938.692 812.616 938.57 807.122 938.605 803.19C980.469 828.491 1165.12 828.89 1208.38 801.673Z"/><path fill="#82CEB0" transform="matrix(1.02359 0 0 1.02348 0.000488281 6.10352e-05)" d="M1127.4 792.465C1132.07 793.23 1136.15 793.71 1140.06 796.519L1140.42 797.699C1137.06 802.086 1126.9 803.22 1121.8 803.886C1106.23 805.923 1034.8 807.608 1024.14 799.147C1023.22 798.42 1023.18 798.069 1022.8 796.96C1025.03 794.097 1032.26 792.851 1035.76 792.78C1047.02 798.86 1058.54 802.492 1071.44 802.641C1092.24 802.88 1109.25 804.204 1127.4 792.465Z"/><path fill="#9CD5BF" transform="matrix(1.02359 0 0 1.02348 0.000488281 6.10352e-05)" d="M649.273 454.291C652.663 451.245 656.825 450.136 661.265 449.926C675.536 449.251 690.352 450.36 704.618 451.05C711.508 451.091 717.431 451.113 724.291 451.7C726.661 453.418 728.6 454.693 730.565 456.907C733.918 466.864 725.16 487.571 721.787 497.854C718.49 507.907 715.024 519.516 711.342 529.387C703.294 525.216 695.832 523.354 687.148 521.426C681.969 520.128 679.475 519.701 676.077 524.597C676.01 525.921 675.813 528.321 675.863 529.571C679.591 542.073 691.355 543.434 701.105 551.528L700.252 554.951C699.853 555.142 685.922 552.643 683.989 552.384C677.288 551.489 670.532 551.06 663.771 551.102C660.293 551.072 656.309 550.66 653.67 553.013C649.386 557.118 646.592 556.467 640.452 556.825C645.468 553.985 649.153 553.776 652.853 548.951C656.092 546.416 656.93 545.515 658.871 542.085C659.532 534.082 652.032 534.62 646.259 535.376C640.53 535.995 634.739 536.556 629.045 537.417L620.917 539.284C623.092 531.759 632.362 507.873 631.778 502.255C634.019 498.674 635.636 492.381 636.95 488.265C640.551 476.981 643.169 464.502 649.273 454.291Z"/><path fill="#B5E2CC" transform="matrix(1.02359 0 0 1.02348 0.000488281 6.10352e-05)" d="M649.273 454.291C652.663 451.245 656.825 450.136 661.265 449.926C675.536 449.251 690.352 450.36 704.618 451.05C711.508 451.091 717.431 451.113 724.291 451.7C726.661 453.418 728.6 454.693 730.565 456.907C709.849 455.631 688.564 455.999 667.843 455.412C659.959 455.188 653.83 458.864 651.598 466.308C644.843 488.844 634.003 514.774 629.045 537.417L620.917 539.284C623.092 531.759 632.362 507.873 631.778 502.255C634.019 498.674 635.636 492.381 636.95 488.265C640.551 476.981 643.169 464.502 649.273 454.291Z"/><path fill="#9CD5BF" transform="matrix(1.02359 0 0 1.02348 0.000488281 6.10352e-05)" d="M649.273 454.291C652.663 451.245 656.825 450.136 661.265 449.926C675.536 449.251 690.352 450.36 704.618 451.05C705.964 452.309 707.035 452.769 707.108 454.116C701.317 456.368 670.63 453.158 662.429 454.341C661.276 454.507 655.816 457.777 653.493 458.648C651.505 457.73 650.622 456.1 649.273 454.291Z"/><path fill="#075C4D" transform="matrix(1.02359 0 0 1.02348 0.000488281 6.10352e-05)" d="M664.572 464.383C675.943 465.308 672.992 473.198 666.7 478.911C654.584 477.632 657.85 470.499 664.572 464.383Z"/><path fill="#63BA9E" transform="matrix(1.02359 0 0 1.02348 0.000488281 6.10352e-05)" d="M928.217 593.372C953.335 566.432 993.804 555.98 1026.06 577.252C1029.2 579.318 1031.99 581.497 1034.93 583.82C1052.11 600.806 1052.1 620.032 1063.99 637.689C1071.43 648.75 1074.59 686.747 1077.34 689.643C1078.53 691.91 1078 699.634 1077.9 702.659L1071.36 702.519C1071.24 698.136 1071.08 693.754 1070.88 689.374C1071.06 672.323 1062.37 639.544 1050.95 626.565C1043.19 623.797 1035.2 624.842 1027.34 626.814C1003.33 631.775 981.345 629.77 961.065 615.135C949.221 606.588 941.277 599.981 928.217 593.372Z"/><path fill="#82CEB0" transform="matrix(1.02359 0 0 1.02348 0.000488281 6.10352e-05)" d="M1028.29 637.886C1045.85 639.128 1050.5 649.236 1057.2 663.677L1051.74 665.086C1040.98 671.38 1035.28 674.85 1022.64 676.546C1020.73 676.804 1012.64 677.688 1011.62 677.927C1002.48 678.393 993.437 679.715 984.401 681.05C988.143 661.727 996.067 645.431 1016.74 639.867C1020.39 638.885 1024.78 639.043 1028.29 637.886Z"/><path fill="#07725F" transform="matrix(1.02359 0 0 1.02348 0.000488281 6.10352e-05)" d="M730.435 704.98C739.644 705.476 748.912 706.794 758.057 707.762C801.649 712.377 845.479 715.273 888.148 725.721C919.38 733.368 933.88 751.258 937.005 783.183C937.246 785.646 938.046 792.349 938.81 794.557C937.384 798.339 937.786 811.895 938.108 816.378L938.045 825.421C937.168 861.464 931.585 903.554 927.557 939.604C925.422 958.704 922.171 986.35 917.992 1004.76C920.275 1008.91 926.07 1018.38 927.647 1022L614.063 1022L587 1022L397.989 1022C397.495 1007.55 396.426 982.971 394.71 969.292C394.32 964.424 391.435 946.292 387.941 944.378L387.418 947.165L387.011 947.173C386.71 940.268 382.922 923.662 384.17 919.206C384.193 916.917 382.494 908.472 381.981 905.937C378.103 886.272 372.689 866.941 365.788 848.122C368.936 845.675 379.306 832.038 383.769 827.38C395.882 814.219 411.01 803.526 425.42 793.364C465.93 764.795 512.919 744.473 563.394 751.581C568.231 752.262 576.588 754.763 581.153 754.392C584.765 755.769 597.118 751.632 601.972 750.446C609.104 749.138 619.015 746.217 626.238 744.303C631.927 742.292 641.457 740.314 647.4 738.956C672.573 733.204 695.555 731.102 721.149 730.003C721.32 729.478 723.782 724.36 724.209 723.428C727.273 716.727 728.941 712.238 730.435 704.98Z"/><path fill="#B5E2CC" transform="matrix(1.02359 0 0 1.02348 0.000488281 6.10352e-05)" d="M730.435 704.98C739.644 705.476 748.912 706.794 758.057 707.762C801.649 712.377 845.479 715.273 888.148 725.721C919.38 733.368 933.88 751.258 937.005 783.183C937.246 785.646 938.046 792.349 938.81 794.557C937.384 798.339 937.786 811.895 938.108 816.378L938.045 825.421C937.168 861.464 931.585 903.554 927.557 939.604C925.422 958.704 922.171 986.35 917.992 1004.76L833.585 856.382C816.461 826.001 800.107 794.417 780.169 765.776C764.458 743.208 747.782 734.426 721.149 730.003C721.32 729.478 723.782 724.36 724.209 723.428C727.273 716.727 728.941 712.238 730.435 704.98Z"/><path fill="#9CD5BF" transform="matrix(1.02359 0 0 1.02348 0.000488281 6.10352e-05)" d="M394.71 969.292C408.581 984.085 458.459 987.804 477.317 988.514C492.889 989.101 571.882 989.155 581.258 985.452C584.851 996.644 586.768 1010.23 587 1022L397.989 1022C397.495 1007.55 396.426 982.971 394.71 969.292Z"/><path fill="#B5E2CC" transform="matrix(1.02359 0 0 1.02348 0.000488281 6.10352e-05)" d="M384.17 919.206C385.483 925.169 386.297 933.011 386.993 939.199C429.131 947.558 456.82 950.732 499.653 952.628C504.844 952.988 512.649 952.137 517.12 952.804C542.554 956.599 568.078 960.424 581.258 985.452C571.882 989.155 492.889 989.101 477.317 988.514C458.459 987.804 408.581 984.085 394.71 969.292C394.32 964.424 391.435 946.292 387.941 944.378L387.418 947.165L387.011 947.173C386.71 940.268 382.922 923.662 384.17 919.206Z"/><path fill="#82CEB0" transform="matrix(1.02359 0 0 1.02348 0.000488281 6.10352e-05)" d="M499.653 952.628C529.152 949.487 567.805 949.525 596.419 957.796C606.342 960.664 612.466 966.044 612.527 976.857C613.244 991.918 613.039 1007.02 614.063 1022L587 1022C586.768 1010.23 584.851 996.644 581.258 985.452C568.078 960.424 542.554 956.599 517.12 952.804C512.649 952.137 504.844 952.988 499.653 952.628Z"/><defs><linearGradient id="gradient_0" gradientUnits="userSpaceOnUse" x1="31.724794" y1="962.28766" x2="405.16116" y2="595.3233"><stop offset="0" stop-color="#93D1BA"/><stop offset="1" stop-color="#C2EAD4"/></linearGradient></defs><path fill="url(#gradient_0)" transform="matrix(1.02359 0 0 1.02348 0.000488281 6.10352e-05)" d="M77.9888 511.135C125.638 483.08 186.638 472.826 241.176 467.787C252.727 466.719 270.891 465.417 282.091 465.884C264.556 496.47 263.165 531.904 261.074 566.206C255.217 588.185 249.519 608.092 248.3 631.15C248.145 634.083 247.056 649.415 246.396 651.033L245.531 651.108C245.528 655.308 248.448 662.466 248.908 667.449C251.807 698.86 254.061 749.103 267.619 777.444C276.651 779.814 287.236 783.521 295.527 785.581C312.566 791.534 324.029 796.198 338.332 807.738C352.161 821.84 357.763 829.915 365.788 848.122C372.689 866.941 378.103 886.272 381.981 905.937C382.494 908.472 384.193 916.917 384.17 919.206C382.922 923.662 386.71 940.268 387.011 947.173L387.418 947.165L387.941 944.378C391.435 946.292 394.32 964.424 394.71 969.292C396.426 982.971 397.495 1007.55 397.989 1022L392.204 1022L87.3891 1022C79.5476 1005.35 67.8386 969.348 62.0403 951.269C45.0946 899.17 31.4772 846.046 21.2707 792.219C13.4387 752.134 5.88305 703.166 6.14401 662.381C6.12967 643.174 8.30194 624.028 12.6189 605.312C22.0709 565.912 43.0587 532.512 77.9888 511.135Z"/><path fill="#82CEB0" transform="matrix(1.02359 0 0 1.02348 0.000488281 6.10352e-05)" d="M170.286 755.305C177.457 734.623 175.48 711.524 172.721 690.14C170.832 675.492 168.371 663.2 172.193 648.212C172.442 647.236 173.294 645.534 174.221 645.371C191.479 642.328 230.209 646.364 245.531 651.108C245.528 655.308 248.448 662.466 248.908 667.449C251.807 698.86 254.061 749.103 267.619 777.444C249.615 772.17 228.333 768.044 209.777 764.212C205.858 763.176 200.515 762.243 196.446 761.407C187.73 758.971 179.1 758.207 170.286 755.305Z"/><path fill="#63BA9E" transform="matrix(1.02359 0 0 1.02348 0.000488281 6.10352e-05)" d="M196.446 761.407C195.488 727.572 184.403 686.83 173.543 655.013C177.793 660.463 181.251 665.781 184.378 671.986C194.403 691.886 210.592 742.589 209.777 764.212C205.858 763.176 200.515 762.243 196.446 761.407Z"/><path fill="#82CEB0" transform="matrix(1.02359 0 0 1.02348 0.000488281 6.10352e-05)" d="M387.941 944.378C391.435 946.292 394.32 964.424 394.71 969.292C396.426 982.971 397.495 1007.55 397.989 1022L392.204 1022C391.99 996.105 389.981 970.175 387.941 944.378Z"/><path fill="#D9986D" transform="matrix(1.02359 0 0 1.02348 0.000488281 6.10352e-05)" d="M676.077 524.597C679.475 519.701 681.969 520.128 687.148 521.426C695.832 523.354 703.294 525.216 711.342 529.387C715.864 532.84 722.024 539.801 721.334 545.44C720.459 552.595 724.451 564.7 724.248 570.331C723.958 578.345 718.286 591.451 715.626 599.147C709.416 611.984 702.916 616.808 703.106 632.014C730.205 649.153 737.027 674.477 730.435 704.98C728.941 712.238 727.273 716.727 724.209 723.428C723.782 724.36 721.32 729.478 721.149 730.003C695.555 731.102 672.573 733.204 647.4 738.956C641.457 740.314 631.927 742.292 626.238 744.303C619.015 746.217 609.104 749.138 601.972 750.446C597.118 751.632 584.765 755.769 581.153 754.392C578.604 750.654 576.138 746.86 573.756 743.012L575.634 741.351C580.793 736.872 581.146 735.05 583.582 728.441C582.658 724.527 578.505 713.798 578.415 710.701C577.764 688.51 586.894 665.098 589.824 642.364C578.605 647.757 564.314 650.163 557.246 653.817C549.883 657.624 530.764 677.613 524.014 684.141C516.074 691.724 507.919 699.078 499.56 706.196L495.472 709.38C482.813 709.868 482.319 707.451 470.639 703.624C462.194 688.708 461.731 666.856 464.112 650.252C476.092 642.927 504.475 629.309 514.229 621.336L515.578 620.942C521.105 617.527 527.343 613.597 531.849 608.941C547.705 592.556 557.118 569.774 576.414 556.649C582.645 552.411 589.343 549.934 596.332 547.173L601.507 545.125C607.947 543.079 614.418 541.132 620.917 539.284L629.045 537.417C634.739 536.556 640.53 535.995 646.259 535.376C652.032 534.62 659.532 534.082 658.871 542.085C656.93 545.515 656.092 546.416 652.853 548.951C649.153 553.776 645.468 553.985 640.452 556.825C646.592 556.467 649.386 557.118 653.67 553.013C656.309 550.66 660.293 551.072 663.771 551.102C670.532 551.06 677.288 551.489 683.989 552.384C685.922 552.643 699.853 555.142 700.252 554.951L701.105 551.528C691.355 543.434 679.591 542.073 675.863 529.571C675.813 528.321 676.01 525.921 676.077 524.597Z"/><path fill="#18A685" transform="matrix(1.02359 0 0 1.02348 0.000488281 6.10352e-05)" d="M649.969 603.257C651.511 606.791 654.393 613.97 656.131 617.085C656.723 623.107 656.854 626.374 659.525 631.745L659.852 632.289L659.493 633.575C650.56 652.138 637.927 673.608 653.742 691.953C663.694 703.498 679.321 702.84 689.76 692.643C703.735 678.991 702.461 650.578 703.106 632.014C730.205 649.153 737.027 674.477 730.435 704.98C728.941 712.238 727.273 716.727 724.209 723.428C723.782 724.36 721.32 729.478 721.149 730.003C695.555 731.102 672.573 733.204 647.4 738.956C641.457 740.314 631.927 742.292 626.238 744.303C619.015 746.217 609.104 749.138 601.972 750.446C597.118 751.632 584.765 755.769 581.153 754.392C578.604 750.654 576.138 746.86 573.756 743.012L575.634 741.351C580.793 736.872 581.146 735.05 583.582 728.441C582.658 724.527 578.505 713.798 578.415 710.701C577.764 688.51 586.894 665.098 589.824 642.364C594.614 639.429 599.347 636.402 604.021 633.286C612.942 625.66 623.711 620.846 633.773 614.775C640.165 610.918 644.158 607.951 649.969 603.257Z"/><path fill="#079173" transform="matrix(1.02359 0 0 1.02348 0.000488281 6.10352e-05)" d="M589.824 642.364C594.614 639.429 599.347 636.402 604.021 633.286C604.065 636.681 603.887 639.863 603.636 643.247C602.833 654.09 603.076 665.113 603.089 675.98C614.606 659.208 623.002 651.152 642.307 644.214C625.272 657.49 612.321 669.524 609.784 692.219C607.629 711.494 610.957 731.226 626.238 744.303C619.015 746.217 609.104 749.138 601.972 750.446C597.118 751.632 584.765 755.769 581.153 754.392C578.604 750.654 576.138 746.86 573.756 743.012L575.634 741.351C580.793 736.872 581.146 735.05 583.582 728.441C582.658 724.527 578.505 713.798 578.415 710.701C577.764 688.51 586.894 665.098 589.824 642.364Z"/><path fill="#82CEB0" transform="matrix(1.02359 0 0 1.02348 0.000488281 6.10352e-05)" d="M583.582 728.441C589.702 738.958 593.095 742.145 601.972 750.446C597.118 751.632 584.765 755.769 581.153 754.392C578.604 750.654 576.138 746.86 573.756 743.012L575.634 741.351C580.793 736.872 581.146 735.05 583.582 728.441Z"/><path fill="#BF7952" transform="matrix(1.02359 0 0 1.02348 0.000488281 6.10352e-05)" d="M654.469 596.364C657.122 598.394 657.946 598.864 660.873 600.396C670.871 606.499 673.845 608.444 682.233 616.61C677.955 614.186 676.068 612.526 670.959 614.085C663.08 616.491 660.868 624.79 659.525 631.745C656.854 626.374 656.723 623.107 656.131 617.085C654.393 613.97 651.511 606.791 649.969 603.257C651.805 601.234 653.082 598.744 654.469 596.364Z"/><path fill="#B5E2CC" transform="matrix(1.02359 0 0 1.02348 0.000488281 6.10352e-05)" d="M654.469 596.364C657.122 598.394 657.946 598.864 660.873 600.396C658.341 607.003 657.15 610.019 656.131 617.085C654.393 613.97 651.511 606.791 649.969 603.257C651.805 601.234 653.082 598.744 654.469 596.364Z"/><path fill="#BF7952" transform="matrix(1.02359 0 0 1.02348 0.000488281 6.10352e-05)" d="M652.853 548.951C649.153 553.776 645.468 553.985 640.452 556.825C634.62 558.34 626.144 559.901 620.893 561.682C617.26 564.909 600.435 567.457 594.895 568.28C603.732 564.049 641.599 549.992 650.046 549.61L652.853 548.951Z"/><path fill="#63BA9E" transform="matrix(1.02359 0 0 1.02348 0.000488281 6.10352e-05)" d="M652.853 548.951C649.153 553.776 645.468 553.985 640.452 556.825C634.62 558.34 626.144 559.901 620.893 561.682C619.951 561.437 620.408 561.663 619.573 560.908C622.41 558.358 644.909 551.387 650.046 549.61L652.853 548.951Z"/><path fill="#82CEB0" transform="matrix(1.02359 0 0 1.02348 0.000488281 6.10352e-05)" d="M675.863 529.571C684.249 537.407 692.686 541.019 702.569 546.658L701.105 551.528C691.355 543.434 679.591 542.073 675.863 529.571Z"/><path fill="#D8B087" transform="matrix(1.02359 0 0 1.02348 0.000488281 6.10352e-05)" d="M653.67 553.013C656.309 550.66 660.293 551.072 663.771 551.102L663.357 552.308L663.809 552.988C665.221 555.136 665.722 555.612 665.794 558.182C663.659 562.438 658.164 559.613 654.362 558.464C652.77 556.766 653.37 555.299 653.67 553.013Z"/><path fill="#D8B087" transform="matrix(1.02359 0 0 1.02348 0.000488281 6.10352e-05)" d="M646.259 535.376C652.032 534.62 659.532 534.082 658.871 542.085C654.557 542.192 650.532 544.238 646.068 541.436C645.991 539.802 647.243 538.752 648.418 537.148L648.23 535.991L646.259 535.376Z"/><path fill="#D8B087" transform="matrix(1.02359 0 0 1.02348 0.000488281 6.10352e-05)" d="M676.077 524.597C679.475 519.701 681.969 520.128 687.148 521.426C688.452 523.779 689.139 524.498 688.934 527.174C686.081 531.673 679.922 527.453 676.797 525.134L676.077 524.597Z"/><path fill="#BF7952" transform="matrix(1.02359 0 0 1.02348 0.000488281 6.10352e-05)" d="M702.569 546.658C706.621 552.45 703.665 552.719 711.08 560.178C708.109 559.15 701.885 557.394 700.252 554.951L701.105 551.528L702.569 546.658Z"/><path fill="#BF7952" transform="matrix(1.02359 0 0 1.02348 0.000488281 6.10352e-05)" d="M659.852 632.289C662.133 634.816 665.544 638.305 667.106 641.163L666.735 641.735C662.964 640.484 660.679 637.275 659.493 633.575L659.852 632.289Z"/><path fill="#BF7952" transform="matrix(1.02359 0 0 1.02348 0.000488281 6.10352e-05)" d="M647.022 572.907C654.974 584.97 681.935 588.428 697.738 601.122C686.748 597.511 677.053 592.247 666.336 588.05C665.862 587.864 658.65 587.391 657.229 587.201L658.607 585.468C658.275 583.722 649.703 578.971 647.433 576.793C635.662 579.567 623.919 584.367 611.879 587.415L610.234 586.335C621.866 582.12 635.777 577.534 647.022 572.907Z"/><path fill="#BF7952" transform="matrix(1.02359 0 0 1.02348 0.000488281 6.10352e-05)" d="M652.681 561.814C655.272 562.285 659.536 564.337 662.301 564.906C670.713 566.64 703.618 574.485 706.394 581.979C700.258 580.422 690.033 575.781 683.308 573.593C673.216 570.311 664.975 568.731 654.563 566.633L655.913 565.474C655.594 563.985 653.925 562.883 652.681 561.814Z"/><path fill="#BF7952" transform="matrix(1.02359 0 0 1.02348 0.000488281 6.10352e-05)" d="M649.901 590.903C650.228 591.169 650.625 593.017 650.78 593.574C639.389 598.939 624.69 604.876 612.61 608.132L611.329 608.068C613.022 605.868 644.732 593.24 649.901 590.903Z"/><path fill="#BF7952" transform="matrix(1.02359 0 0 1.02348 0.000488281 6.10352e-05)" d="M611.879 587.415C609.418 587.971 608.899 588.216 606.454 587.958L606.773 587.344L610.234 586.335L611.879 587.415Z"/><path fill="#D9986D" transform="matrix(1.02359 0 0 1.02348 0.000488281 6.10352e-05)" d="M436.927 330.109C440.694 337.542 444.312 346.939 448.473 353.759C462.888 377.389 481.887 391.812 506.241 403.584C505.288 407.279 503.396 413.428 504.297 417.003C507.652 418.659 512.921 421.439 516.406 422.105C526.662 426.872 521.808 440.41 519.237 448.654C516.792 456.493 511.336 463.494 506.504 470.033C509.572 493.967 507.754 512.682 504.913 536.689C493.892 523.65 484.911 506.463 475.683 491.984C471.651 485.657 468.62 477.343 465.039 470.534C458.374 466.487 451.302 462.839 444.445 458.579C423.286 445.433 411.096 431.82 395.657 412.982C401.358 412.055 406.61 409.733 410.751 405.664C428.091 398.585 433.741 372.078 436.479 355.817C436.203 349.35 436.905 337.359 436.927 330.109Z"/><path fill="#BF7952" transform="matrix(1.02359 0 0 1.02348 0.000488281 6.10352e-05)" d="M436.927 330.109C440.694 337.542 444.312 346.939 448.473 353.759C462.888 377.389 481.887 391.812 506.241 403.584C505.288 407.279 503.396 413.428 504.297 417.003C502.645 420.612 502.097 427.885 500.947 432.624C500.307 429.066 500.703 426.977 501.096 423.393C472.943 418.571 457.429 397.204 444.647 373.368C442.258 368.913 439.597 358.995 436.479 355.817C436.203 349.35 436.905 337.359 436.927 330.109Z"/><path fill="#075C4D" transform="matrix(1.02359 0 0 1.02348 0.000488281 6.10352e-05)" d="M486.001 738.801C499.787 737.505 514.185 731.267 528.531 731.893C541.778 732.471 564.231 733.262 573.756 743.012C576.138 746.86 578.604 750.654 581.153 754.392C576.588 754.763 568.231 752.262 563.394 751.581C512.919 744.473 465.93 764.795 425.42 793.364C411.01 803.526 395.882 814.219 383.769 827.38C379.306 832.038 368.936 845.675 365.788 848.122C357.763 829.915 352.161 821.84 338.332 807.738L342.773 800.313C355.682 804.528 375.316 802.528 388.602 799.26C423.027 790.793 466.815 769.689 486.001 738.801Z"/><path fill="#63BA9E" transform="matrix(1.02359 0 0 1.02348 0.000488281 6.10352e-05)" d="M246.396 651.033C252.41 652.437 258.478 654.113 264.604 654.579C270.079 698.015 273.336 733.241 298 770.318C297.239 774.694 295.88 781.325 295.527 785.581C287.236 783.521 276.651 779.814 267.619 777.444C254.061 749.103 251.807 698.86 248.908 667.449C248.448 662.466 245.528 655.308 245.531 651.108L246.396 651.033Z"/><path fill="#82CEB0" transform="matrix(1.02359 0 0 1.02348 0.000488281 6.10352e-05)" d="M246.396 651.033C247.056 649.415 248.145 634.083 248.3 631.15C249.519 608.092 255.217 588.185 261.074 566.206C260.929 595.701 262.107 625.189 264.604 654.579C258.478 654.113 252.41 652.437 246.396 651.033Z"/><path fill="#079173" transform="matrix(1.02359 0 0 1.02348 0.000488281 6.10352e-05)" d="M504.456 534.252C519.472 557.245 519.303 594.675 515.578 620.942L514.229 621.336C513.598 620.198 513.51 619.292 513.577 618.011C514.308 601.829 515.474 585.133 512.726 569.047C510.762 557.554 507.095 545.712 504.456 534.252Z"/><path fill="#079173" transform="matrix(1.02359 0 0 1.02348 0.000488281 6.10352e-05)" d="M596.332 547.173C593.064 535.445 588.485 519.905 589.691 507.569C590.012 504.274 591.354 486.961 592.502 485.617C592.729 486.308 593.35 498.128 593.336 499.782C593.196 516.119 597.629 529.423 601.507 545.125L596.332 547.173Z"/><path fill="#BF7952" transform="matrix(1.02359 0 0 1.02348 0.000488281 6.10352e-05)" d="M470.639 703.624C482.319 707.451 482.813 709.868 495.472 709.38C490.859 713.645 484.973 720.899 478.398 717.145C476.277 712.801 473.449 709.757 470.639 703.624Z"/><path fill="#07725F" transform="matrix(1.02359 0 0 1.02348 0.000488281 6.10352e-05)" d="M495.472 709.38L499.56 706.196C499.918 710.293 499.283 714.441 498.818 718.539C492.468 724.388 482.676 725.892 478.398 717.145C484.973 720.899 490.859 713.645 495.472 709.38Z"/><path fill="#82CEB0" transform="matrix(1.02359 0 0 1.02348 0.000488281 6.10352e-05)" d="M1084.27 648.231C1084.74 636.54 1085.07 625.398 1086.22 613.704C1087.36 602.135 1091.79 584.661 1090.88 573.667C1089.91 561.841 1082.75 548.722 1081.47 535.867C1079.2 513.183 1085.64 492.643 1099.68 475.009C1115.94 454.75 1139.53 441.708 1165.34 438.705C1171.93 485.236 1160.9 523.705 1122.86 553.601C1114.57 560.115 1101.18 569.488 1096.81 578.786C1095.4 588.696 1093.65 598.447 1092.26 608.457C1089.19 630.57 1090.46 653.608 1088.32 675.574L1087.19 676.396C1084.67 679.108 1082.22 681.906 1078.52 680.074C1077.75 678.402 1077.73 678.291 1077.35 676.476C1077.5 671.84 1076.94 664.709 1076.86 659.787C1076.47 637.412 1074.55 618.76 1068.42 597.244C1067.8 594.363 1067.64 592.559 1065.82 590.185C1056.01 580.522 1048.2 575.463 1036.68 568.12C1029.62 562.54 1022.77 559.046 1015.09 552.497C990.283 531.365 982.624 502.235 971.481 472.825C998.631 468.798 1016.14 476.405 1037.88 491.448C1042.16 495.846 1047.12 500.209 1051.04 504.615C1066.44 521.921 1073.79 545.604 1072.47 568.586C1071.41 587.105 1072.15 596.838 1077.63 614.638C1079.72 621.411 1080.06 635.861 1081.26 643.585C1081.43 651.441 1082.4 660.601 1083.22 668.43C1083.81 662.642 1084.8 653.956 1084.27 648.231Z"/><path fill="#B5E2CC" transform="matrix(1.02359 0 0 1.02348 0.000488281 6.10352e-05)" d="M1065.82 590.185C1061.76 567.589 1043.44 543.764 1031.01 524.937C1029.15 522.112 1019.94 511.542 1019.77 509.599C1021.4 510.04 1024.04 513.323 1025.35 514.729C1036.73 526.773 1046.61 540.15 1054.78 554.569C1060.29 564.165 1074.27 586.807 1068.42 597.244C1067.8 594.363 1067.64 592.559 1065.82 590.185Z"/><path fill="#63BA9E" transform="matrix(1.02359 0 0 1.02348 0.000488281 6.10352e-05)" d="M1087.19 676.396C1087.38 671.112 1086.69 664.325 1087.3 659.318C1090.52 632.968 1088.15 604.564 1095.63 579.021L1096.81 578.786C1095.4 588.696 1093.65 598.447 1092.26 608.457C1089.19 630.57 1090.46 653.608 1088.32 675.574L1087.19 676.396Z"/><path fill="#DBEEE5" transform="matrix(1.02359 0 0 1.02348 0.000488281 6.10352e-05)" d="M1297.18 704.512C1307.48 729.194 1313.54 751.937 1299.02 777.344C1295.49 783.511 1288.48 790.523 1285.88 796.83C1280.32 810.292 1278.54 827.809 1276.4 842.358C1290.14 823.369 1287.78 810.893 1314 798.48L1314 820.39C1301.58 831.163 1295.9 831.173 1284.13 838.67C1271.46 850.478 1270.38 873.622 1267.04 889.809C1266.61 891.921 1264.5 901.907 1264.94 903.38C1269.08 891.44 1272.27 878.403 1281.05 868.538L1282.89 866.11L1284.78 863.796C1292.81 854.306 1302.21 847.636 1314 843.779L1314 873.88C1303.18 891.641 1297.28 896.428 1278.91 906.864C1274.55 909.341 1267.5 913.69 1264.63 917.824C1256.28 929.827 1253.27 947.251 1246.15 960.238C1245.54 964.288 1242.62 968.835 1241.62 973.108C1239.82 975.851 1238.09 978.631 1236.48 981.487C1229.87 993.177 1220.94 1003.67 1215.64 1016.08C1213.33 1018.25 1211.67 1019.59 1208.85 1021.1C1211.36 1014.76 1217.8 1004.67 1221.69 998.143C1231.14 982.245 1244.11 959.292 1247.35 941.337C1249.4 930.008 1228.57 914.126 1221.38 905.261C1205.3 885.458 1203.3 870.077 1205.17 845.322C1216.6 849.433 1229.86 858.603 1237.9 867.569C1256.33 888.108 1253.71 908.344 1252.56 933.419C1257.68 921.699 1260.82 898.256 1263.64 884.953C1269.58 856.953 1250.26 851.262 1236.9 832.871C1222.73 813.375 1225.75 794.044 1229.68 771.982C1234.21 774.258 1241.96 779.905 1245.67 783.388C1274.49 810.454 1265.69 832.983 1267.24 863.888C1270.65 852.256 1280.93 804.879 1278.27 794.885C1277.26 791.111 1275.21 787.367 1273.68 783.759C1270.51 776.236 1269.11 768.169 1268.87 760.02C1268.19 736.277 1281.69 720.761 1297.18 704.512Z"/><path fill="#DBEEE5" transform="matrix(1.02359 0 0 1.02348 0.000488281 6.10352e-05)" d="M1112.34 616.496C1113.64 595.638 1116.77 579.345 1130.66 562.616C1148.82 540.752 1178.19 531.672 1205.9 533.537C1208.48 533.725 1211.05 533.964 1213.62 534.255C1204.22 563.112 1192.46 588.936 1163.86 603.336C1147.9 611.368 1133.24 613.246 1117.05 620.09C1112.46 623.268 1103.9 644.633 1102.5 650.603C1100.35 649.971 1100 649.595 1098.11 648.292C1102.62 636.91 1108.39 626.544 1112.34 616.496Z"/><path fill="#9CD5BF" transform="matrix(1.02359 0 0 1.02348 0.000488281 6.10352e-05)" d="M1184.85 549.685L1184.3 550.163C1178.06 555.593 1168.67 561.958 1162.22 566.984C1150.86 575.837 1121.39 606.125 1116.81 619.128L1117.05 620.09C1112.46 623.268 1103.9 644.633 1102.5 650.603C1100.35 649.971 1100 649.595 1098.11 648.292C1102.62 636.91 1108.39 626.544 1112.34 616.496C1114.71 615.076 1121.42 604.384 1123.49 601.575C1138.99 580.498 1160.11 559.535 1184.85 549.685Z"/><path fill="#82CEB0" transform="matrix(1.02359 0 0 1.02348 0.000488281 6.10352e-05)" d="M1113.88 649.732C1120.47 636.602 1128.3 628.065 1142.75 623.315C1168.94 614.706 1195.99 628.629 1203.34 655.376C1206.33 665.953 1206.37 672.533 1206.16 683.358C1188.92 677.818 1171.57 674.003 1154.47 668.487C1141.03 664.15 1128.23 646.545 1113.24 658.153C1112.9 652.368 1118.63 650.124 1123.03 647.424C1119.9 648.069 1117.35 649.106 1113.88 649.732Z"/><path fill="#63BA9E" transform="matrix(1.02359 0 0 1.02348 0.000488281 6.10352e-05)" d="M984.426 862.177C990.957 866.031 998.152 866.727 1005.58 868.167L991.947 961.66C989.15 981.09 986.394 1002.8 982.94 1022L964.219 1022C966.354 1012.99 968.573 987.969 969.837 977.72L978.012 911.909C979.993 895.578 981.79 878.351 984.426 862.177Z"/><path fill="#63BA9E" transform="matrix(1.02359 0 0 1.02348 0.000488281 6.10352e-05)" d="M1065.5 871.041C1071.19 871.14 1081.25 871.351 1086.69 870.171C1087.53 920.658 1086.26 971.483 1086.1 1022L1066.79 1022L1065.5 871.041Z"/><path fill="#82CEB0" transform="matrix(1.02359 0 0 1.02348 0.000488281 6.10352e-05)" d="M1215.64 1016.08C1226.36 1013.22 1238.53 994.305 1246.32 986.05C1266.45 964.736 1286.26 960.457 1314 959.493L1314 984.632C1270.88 1031.77 1247.13 997.993 1216.98 1022L1207.84 1022L1208.85 1021.1C1211.67 1019.59 1213.33 1018.25 1215.64 1016.08Z"/><path fill="#82CEB0" transform="matrix(1.02359 0 0 1.02348 0.000488281 6.10352e-05)" d="M1110.86 960.543C1136.8 959.825 1139.72 962.557 1161.71 973.127C1165.63 976.219 1169.92 981.338 1173.08 985.221C1175.94 988.747 1181.26 999.108 1184.26 1001.15C1185.05 1008.05 1187.01 1015.27 1188.82 1022L1168.36 1022C1164.59 1019.71 1155.95 1016.17 1151.56 1013.84C1127.24 1000.92 1118.87 985.062 1110.86 960.543Z"/><path fill="#63BA9E" transform="matrix(1.02359 0 0 1.02348 0.000488281 6.10352e-05)" d="M1166.9 862.122L1177.96 946.649C1180.17 963.762 1183.27 984.197 1184.26 1001.15C1181.26 999.108 1175.94 988.747 1173.08 985.221C1169.92 981.338 1165.63 976.219 1161.71 973.127C1159.41 964.356 1157.36 946.672 1155.99 937.057C1152.78 913.921 1149.32 890.821 1145.6 867.762C1151.29 866.993 1162.11 864.722 1166.9 862.122Z"/><path fill="#82CEB0" transform="matrix(1.02359 0 0 1.02348 0.000488281 6.10352e-05)" d="M1195.2 914.154C1208.93 924.635 1218.53 939.415 1220.9 956.518C1223.89 978.148 1215.61 990.498 1208.09 1009.32C1206.94 1012.18 1205.06 1018.9 1204.94 1022L1199.72 1022C1203.04 1007.09 1200.42 1002.73 1193.54 989.464C1179.82 963.022 1182.61 940.268 1195.2 914.154Z"/><path fill="#DBEEE5" transform="matrix(1.02359 0 0 1.02348 0.000488281 6.10352e-05)" d="M1314 912.977L1314 935.48C1305.36 940.998 1299.88 944.38 1289.55 946.852C1280.43 949.033 1271.75 949.016 1263.49 953.262L1263.52 946.94C1266.14 944.609 1271.36 937.959 1273.85 935.022C1285.95 920.756 1296.1 916.269 1314 912.977Z"/><path fill="#82CEB0" transform="matrix(1.02359 0 0 1.02348 0.000488281 6.10352e-05)" d="M1088.57 683.064C1089.09 682.639 1089.65 681.909 1089.78 681.237C1092.03 669.943 1094.64 659.274 1098.11 648.292C1100 649.595 1100.35 649.971 1102.5 650.603C1099.25 659.214 1092.97 681.949 1094.92 690.407C1095.2 694.036 1094.47 699.156 1093.6 702.691L1087.31 702.622L1077.9 702.659C1078 699.634 1078.53 691.91 1077.34 689.643C1077.89 686.308 1077.47 680.064 1077.35 676.476C1077.73 678.291 1077.75 678.402 1078.52 680.074C1082.22 681.906 1084.67 679.108 1087.19 676.396L1088.32 675.574C1088.35 677.983 1088.3 680.695 1088.57 683.064Z"/><path fill="#18A685" transform="matrix(1.02359 0 0 1.02348 0.000488281 6.10352e-05)" d="M1088.32 675.574C1088.35 677.983 1088.3 680.695 1088.57 683.064C1086.57 684.887 1087.34 699.073 1087.31 702.622L1077.9 702.659C1078 699.634 1078.53 691.91 1077.34 689.643C1077.89 686.308 1077.47 680.064 1077.35 676.476C1077.73 678.291 1077.75 678.402 1078.52 680.074C1082.22 681.906 1084.67 679.108 1087.19 676.396L1088.32 675.574Z"/><path fill="#18A685" transform="matrix(1.02359 0 0 1.02348 0.000488281 6.10352e-05)" d="M1065.27 846.133L1086.7 846.164C1086.95 854.334 1086.84 861.992 1086.69 870.171C1081.25 871.351 1071.19 871.14 1065.5 871.041L1065.27 846.133Z"/><path fill="#18A685" transform="matrix(1.02359 0 0 1.02348 0.000488281 6.10352e-05)" d="M987.077 840.762C994.27 841.473 1001.75 842.085 1008.84 843.327L1005.58 868.167C998.152 866.727 990.957 866.031 984.426 862.177L987.077 840.762Z"/><path fill="#18A685" transform="matrix(1.02359 0 0 1.02348 0.000488281 6.10352e-05)" d="M1142.43 843.241C1149.48 842.599 1156.65 841.421 1164.05 840.773C1164.93 847.411 1165.77 855.656 1166.9 862.122C1162.11 864.722 1151.29 866.993 1145.6 867.762C1144.67 859.533 1143.24 851.638 1142.43 843.241Z"/><path fill="#E4E3E5" fill-opacity="0.011764706" transform="matrix(1.02359 0 0 1.02348 0.000488281 6.10352e-05)" d="M1281.05 868.538C1272.27 878.403 1269.08 891.44 1264.94 903.38C1264.5 901.907 1266.61 891.921 1267.04 889.809C1270.38 873.622 1271.46 850.478 1284.13 838.67L1286.36 840.268C1286.5 845.111 1279.95 844.134 1283.09 853.95L1283.23 854.361C1281.37 853.027 1281.34 852.478 1279.63 852.622L1279.34 852.893L1279.29 854.356C1281.11 854.734 1281.44 854.611 1283.23 854.361L1284.5 854.898C1286.15 859.842 1280.66 858.402 1284.78 863.796L1282.89 866.11C1281.32 864.58 1279.19 862.155 1277.25 861.441C1277.3 862.927 1280.04 867.845 1281.05 868.538Z"/><path fill="#63BA9E" transform="matrix(1.02359 0 0 1.02348 0.000488281 6.10352e-05)" d="M1113.88 649.732C1117.35 649.106 1119.9 648.069 1123.03 647.424C1118.63 650.124 1112.9 652.368 1113.24 658.153C1105.44 669.119 1103.07 677.366 1100.21 690.245L1098.17 702.592L1093.6 702.691C1094.47 699.156 1095.2 694.036 1094.92 690.407C1096.5 687.276 1098.02 681.357 1098.91 677.9C1102.26 664.865 1105.56 659.629 1113.88 649.732Z"/><path fill="#B5E2CC" transform="matrix(1.02359 0 0 1.02348 0.000488281 6.10352e-05)" d="M1246.15 960.238C1251.59 956.467 1257.52 951.198 1263.52 946.94L1263.49 953.262C1254.98 959.216 1249.1 966.311 1241.62 973.108C1242.62 968.835 1245.54 964.288 1246.15 960.238Z"/><path fill="#E4E3E5" fill-opacity="0.0078431377" transform="matrix(1.02359 0 0 1.02348 0.000488281 6.10352e-05)" d="M1081.26 643.585C1081.66 640.671 1081.52 638.868 1082.77 636.372C1084.08 638.821 1083.26 644.969 1084.27 648.231C1084.8 653.956 1083.81 662.642 1083.22 668.43C1082.4 660.601 1081.43 651.441 1081.26 643.585Z"/></svg>